<svg width="8" height="8" viewBox="0 0 8 8" fill="none" xmlns="http://www.w3.org/2000/svg">
<path d="M2.38796 3.63636L2.68892 4.16726L2.99254 3.63636H3.28285L2.8576 4.31818L3.2864 5H2.99609L2.68892 4.49041L2.38263 5H2.09144L2.5158 4.31818L2.09677 3.63636H2.38796ZM4.24165 3.18182V5H3.96644V3.45703H3.95579L3.52077 3.74112V3.47834L3.97443 3.18182H4.24165ZM4.80695 5.01687C4.75842 5.01687 4.71669 4.9997 4.68177 4.96538C4.64685 4.93046 4.62939 4.88844 4.62939 4.83931C4.62939 4.79078 4.64685 4.74935 4.68177 4.71502C4.71669 4.6801 4.75842 4.66264 4.80695 4.66264C4.85548 4.66264 4.89721 4.6801 4.93213 4.71502C4.96705 4.74935 4.98451 4.79078 4.98451 4.83931C4.98451 4.87186 4.97622 4.90175 4.95965 4.92898C4.94367 4.95561 4.92236 4.97692 4.89573 4.9929C4.8691 5.00888 4.8395 5.01687 4.80695 5.01687ZM5.90736 5.02486C5.79609 5.02486 5.69607 5.00355 5.60729 4.96094C5.5191 4.91773 5.44867 4.85855 5.396 4.78338C5.34332 4.70821 5.31521 4.6224 5.31166 4.52592H5.57799C5.5845 4.60405 5.61913 4.66826 5.68186 4.71857C5.7446 4.76888 5.81977 4.79403 5.90736 4.79403C5.9772 4.79403 6.03905 4.77805 6.09291 4.74609C6.14736 4.71354 6.18997 4.66886 6.22075 4.61204C6.25212 4.55522 6.2678 4.49041 6.2678 4.41761C6.2678 4.34363 6.25182 4.27764 6.21986 4.21964C6.1879 4.16164 6.14381 4.11606 6.08758 4.08292C6.03195 4.04978 5.96802 4.03291 5.89582 4.03232C5.84078 4.03232 5.78544 4.04179 5.7298 4.06072C5.67417 4.07966 5.62919 4.10452 5.59486 4.1353L5.34362 4.09801L5.44571 3.18182H6.44536V3.41708H5.67387L5.61617 3.92578H5.62682C5.66233 3.89145 5.70938 3.86275 5.76798 3.83967C5.82716 3.81658 5.89049 3.80504 5.95796 3.80504C6.06864 3.80504 6.16718 3.83138 6.2536 3.88406C6.3406 3.93673 6.40896 4.00864 6.45867 4.09979C6.50898 4.19034 6.53384 4.29451 6.53325 4.41229C6.53384 4.53007 6.50721 4.63512 6.45335 4.72745C6.40008 4.81978 6.3261 4.89258 6.2314 4.94585C6.1373 4.99852 6.02928 5.02486 5.90736 5.02486Z" fill="#1939D4"/>
<path d="M4.00002 7.33335C5.84097 7.33335 7.33335 5.84097 7.33335 4.00002C7.33335 2.15907 5.84097 0.666687 4.00002 0.666687C2.15907 0.666687 0.666687 2.15907 0.666687 4.00002C0.666687 5.84097 2.15907 7.33335 4.00002 7.33335Z" stroke="#1939D4" stroke-width="0.3" stroke-linecap="round" stroke-linejoin="round"/>
</svg>
