<svg width="8" height="8" viewBox="0 0 8 8" fill="none" xmlns="http://www.w3.org/2000/svg">
<path d="M2.38796 3.63636L2.68892 4.16726L2.99254 3.63636H3.28285L2.8576 4.31818L3.2864 5H2.99609L2.68892 4.49041L2.38263 5H2.09144L2.5158 4.31818L2.09677 3.63636H2.38796ZM4.24165 3.18182V5H3.96644V3.45703H3.95579L3.52077 3.74112V3.47834L3.97443 3.18182H4.24165ZM4.80695 5.01687C4.75842 5.01687 4.71669 4.9997 4.68177 4.96538C4.64685 4.93046 4.62939 4.88844 4.62939 4.83931C4.62939 4.79078 4.64685 4.74935 4.68177 4.71502C4.71669 4.6801 4.75842 4.66264 4.80695 4.66264C4.85548 4.66264 4.89721 4.6801 4.93213 4.71502C4.96705 4.74935 4.98451 4.79078 4.98451 4.83931C4.98451 4.87186 4.97622 4.90175 4.95965 4.92898C4.94367 4.95561 4.92236 4.97692 4.89573 4.9929C4.8691 5.00888 4.8395 5.01687 4.80695 5.01687ZM5.33651 5V4.80114L5.95175 4.16371C6.01744 4.09446 6.0716 4.03379 6.11421 3.98171C6.15742 3.92904 6.18968 3.87902 6.21098 3.83168C6.23229 3.78433 6.24294 3.73402 6.24294 3.68075C6.24294 3.62038 6.22874 3.5683 6.20033 3.5245C6.17192 3.48011 6.13315 3.44608 6.08403 3.42241C6.0349 3.39814 5.97957 3.38601 5.91801 3.38601C5.85291 3.38601 5.79609 3.39933 5.74756 3.42596C5.69903 3.45259 5.66174 3.49018 5.6357 3.53871C5.60966 3.58724 5.59664 3.64406 5.59664 3.70916H5.33474C5.33474 3.59848 5.36019 3.50172 5.41109 3.41886C5.46199 3.336 5.53183 3.27178 5.62061 3.22621C5.70938 3.18004 5.8103 3.15696 5.92334 3.15696C6.03757 3.15696 6.13818 3.17975 6.22519 3.22532C6.31278 3.2703 6.38114 3.33185 6.43026 3.40998C6.47939 3.48751 6.50395 3.57511 6.50395 3.67276C6.50395 3.74023 6.49123 3.80623 6.46578 3.87074C6.44092 3.93525 6.39742 4.00716 6.33527 4.08647C6.27313 4.16519 6.18672 4.26077 6.07604 4.37322L5.71471 4.75142V4.76474H6.53325V5H5.33651Z" fill="#1939D4"/>
<path d="M4.00002 7.33335C5.84097 7.33335 7.33335 5.84097 7.33335 4.00002C7.33335 2.15907 5.84097 0.666687 4.00002 0.666687C2.15907 0.666687 0.666687 2.15907 0.666687 4.00002C0.666687 5.84097 2.15907 7.33335 4.00002 7.33335Z" stroke="#1939D4" stroke-width="0.3" stroke-linecap="round" stroke-linejoin="round"/>
</svg>
